<svg xmlns="http://www.w3.org/2000/svg" viewBox="0 0 960 600" width="960" height="600" role="img"><defs>
<linearGradient id="sky" x1="0" y1="0" x2="0" y2="1"><stop offset="0" stop-color="#cfe3f7"/><stop offset="1" stop-color="#fdf0d2"/></linearGradient>
<linearGradient id="panel" x1="0" y1="0" x2="1" y2="1"><stop offset="0" stop-color="#2b5fa8"/><stop offset="1" stop-color="#15386b"/></linearGradient>
<radialGradient id="sun" cx="0.5" cy="0.5" r="0.5"><stop offset="0" stop-color="#ffd24d"/><stop offset="1" stop-color="#ffd24d" stop-opacity="0"/></radialGradient>
</defs><rect width="960" height="600" fill="url(#sky)"/><circle cx="144.0" cy="108.0" r="120.0" fill="url(#sun)"/><rect x="96.0" y="276.0" width="84" height="52" rx="2" fill="url(#panel)" stroke="#e7eef8" stroke-width="1.5"/><path d="M124.0 276.0 v52 M152.0 276.0 v52 M96.0 302.0 h84" stroke="#e7eef8" stroke-opacity=".35" stroke-width="1"/><rect x="185.0" y="276.0" width="84" height="52" rx="2" fill="url(#panel)" stroke="#e7eef8" stroke-width="1.5"/><path d="M213.0 276.0 v52 M241.0 276.0 v52 M185.0 302.0 h84" stroke="#e7eef8" stroke-opacity=".35" stroke-width="1"/><rect x="274.0" y="276.0" width="84" height="52" rx="2" fill="url(#panel)" stroke="#e7eef8" stroke-width="1.5"/><path d="M302.0 276.0 v52 M330.0 276.0 v52 M274.0 302.0 h84" stroke="#e7eef8" stroke-opacity=".35" stroke-width="1"/><rect x="363.0" y="276.0" width="84" height="52" rx="2" fill="url(#panel)" stroke="#e7eef8" stroke-width="1.5"/><path d="M391.0 276.0 v52 M419.0 276.0 v52 M363.0 302.0 h84" stroke="#e7eef8" stroke-opacity=".35" stroke-width="1"/><rect x="452.0" y="276.0" width="84" height="52" rx="2" fill="url(#panel)" stroke="#e7eef8" stroke-width="1.5"/><path d="M480.0 276.0 v52 M508.0 276.0 v52 M452.0 302.0 h84" stroke="#e7eef8" stroke-opacity=".35" stroke-width="1"/><rect x="541.0" y="276.0" width="84" height="52" rx="2" fill="url(#panel)" stroke="#e7eef8" stroke-width="1.5"/><path d="M569.0 276.0 v52 M597.0 276.0 v52 M541.0 302.0 h84" stroke="#e7eef8" stroke-opacity=".35" stroke-width="1"/><rect x="96.0" y="333.0" width="84" height="52" rx="2" fill="url(#panel)" stroke="#e7eef8" stroke-width="1.5"/><path d="M124.0 333.0 v52 M152.0 333.0 v52 M96.0 359.0 h84" stroke="#e7eef8" stroke-opacity=".35" stroke-width="1"/><rect x="185.0" y="333.0" width="84" height="52" rx="2" fill="url(#panel)" stroke="#e7eef8" stroke-width="1.5"/><path d="M213.0 333.0 v52 M241.0 333.0 v52 M185.0 359.0 h84" stroke="#e7eef8" stroke-opacity=".35" stroke-width="1"/><rect x="274.0" y="333.0" width="84" height="52" rx="2" fill="url(#panel)" stroke="#e7eef8" stroke-width="1.5"/><path d="M302.0 333.0 v52 M330.0 333.0 v52 M274.0 359.0 h84" stroke="#e7eef8" stroke-opacity=".35" stroke-width="1"/><rect x="363.0" y="333.0" width="84" height="52" rx="2" fill="url(#panel)" stroke="#e7eef8" stroke-width="1.5"/><path d="M391.0 333.0 v52 M419.0 333.0 v52 M363.0 359.0 h84" stroke="#e7eef8" stroke-opacity=".35" stroke-width="1"/><rect x="452.0" y="333.0" width="84" height="52" rx="2" fill="url(#panel)" stroke="#e7eef8" stroke-width="1.5"/><path d="M480.0 333.0 v52 M508.0 333.0 v52 M452.0 359.0 h84" stroke="#e7eef8" stroke-opacity=".35" stroke-width="1"/><rect x="541.0" y="333.0" width="84" height="52" rx="2" fill="url(#panel)" stroke="#e7eef8" stroke-width="1.5"/><path d="M569.0 333.0 v52 M597.0 333.0 v52 M541.0 359.0 h84" stroke="#e7eef8" stroke-opacity=".35" stroke-width="1"/><rect x="556.8" y="48.0" width="288.0" height="180.0" rx="14" fill="#fff" stroke="#9fb0c3" stroke-width="3"/><rect x="556.8" y="48.0" width="288.0" height="48.0" rx="14" fill="#15386b"/><circle cx="585.6" cy="126.0" r="9" fill="#e2e8f0"/><circle cx="635.52" cy="126.0" r="9" fill="#ffd24d"/><circle cx="685.44" cy="126.0" r="9" fill="#e2e8f0"/><circle cx="735.36" cy="126.0" r="9" fill="#e2e8f0"/><circle cx="785.28" cy="126.0" r="9" fill="#e2e8f0"/><circle cx="585.6" cy="159.0" r="9" fill="#e2e8f0"/><circle cx="635.52" cy="159.0" r="9" fill="#e2e8f0"/><circle cx="685.44" cy="159.0" r="9" fill="#e2e8f0"/><circle cx="735.36" cy="159.0" r="9" fill="#ffd24d"/><circle cx="785.28" cy="159.0" r="9" fill="#e2e8f0"/><circle cx="585.6" cy="192.0" r="9" fill="#e2e8f0"/><circle cx="635.52" cy="192.0" r="9" fill="#e2e8f0"/><circle cx="685.44" cy="192.0" r="9" fill="#ffd24d"/><circle cx="735.36" cy="192.0" r="9" fill="#e2e8f0"/><circle cx="785.28" cy="192.0" r="9" fill="#e2e8f0"/></svg>